Coordinates
version=1
nRows=49
nColumns=12
inDegrees=yes

Units are S.I. units (second, meters, Newtons, ...)
Angles are in degrees

endheader
time	SC_y	SC_z	SC_x	AC_y	AC_z	AC_x	GH_y	GH_z	GH_yy	EL_x	PS_y
       0.0              -33.38          26.39          44.71          32.31         0.2578         -4.683         -50.68         -12.43         -139.4          81.47          106.7
   0.03337              -33.38          26.39          44.71          32.32         0.2586         -4.684         -50.69         -12.41         -139.4          81.46          106.7
   0.06673              -33.38          26.39          44.71          32.32         0.2594         -4.685          -50.7          -12.4         -139.4          81.46          106.7
    0.1001              -33.38          26.39           44.7          32.32         0.2603         -4.686          -50.7         -12.38         -139.4          81.45          106.6
    0.1335              -33.39          26.39           44.7          32.33         0.2613         -4.687         -50.71         -12.37         -139.4          81.44          106.6
    0.1668              -33.39          26.39           44.7          32.33         0.2623         -4.689         -50.72         -12.35         -139.4          81.43          106.6
    0.2002              -33.39          26.38          44.69          32.34         0.2634          -4.69         -50.73         -12.33         -139.4          81.42          106.6
    0.2336              -33.39          26.38          44.69          32.34         0.2646         -4.692         -50.74         -12.31         -139.4          81.41          106.6
    0.2669              -33.39          26.38          44.69          32.35         0.2659         -4.693         -50.75         -12.29         -139.4           81.4          106.6
    0.3003              -33.39          26.38          44.68          32.35         0.2672         -4.695         -50.76         -12.27         -139.4          81.39          106.5
    0.3337              -33.39          26.38          44.68          32.36         0.2687         -4.697         -50.77         -12.24         -139.4          81.38          106.5
     0.367              -33.39          26.37          44.67          32.37         0.2702         -4.699         -50.79         -12.22         -139.3          81.37          106.5
    0.4004              -33.39          26.37          44.67          32.37         0.2719         -4.701          -50.8         -12.19         -139.3          81.35          106.5
    0.4338              -33.39          26.37          44.66          32.38         0.2737         -4.704         -50.82         -12.16         -139.3          81.34          106.5
    0.4671               -33.4          26.37          44.65          32.39         0.2757         -4.706         -50.83         -12.13         -139.3          81.32          106.4
    0.5005               -33.4          26.36          44.65           32.4         0.2778         -4.709         -50.85         -12.09         -139.3           81.3          106.4
    0.5339               -33.4          26.36          44.64          32.41         0.2801         -4.712         -50.87         -12.05         -139.3          81.29          106.4
    0.5672               -33.4          26.36          44.63          32.42         0.2827         -4.715         -50.89         -12.01         -139.3          81.26          106.3
    0.6006               -33.4          26.35          44.62          32.43         0.2854         -4.719         -50.92         -11.96         -139.2          81.24          106.3
     0.634              -33.41          26.35          44.61          32.45         0.2885         -4.723         -50.94         -11.91         -139.2          81.22          106.2
    0.6673              -33.41          26.34           44.6          32.46         0.2918         -4.727         -50.97         -11.86         -139.2          81.19          106.2
    0.7007              -33.41          26.34          44.59          32.48         0.2954         -4.732          -51.0          -11.8         -139.2          81.16          106.1
    0.7341              -33.41          26.33          44.58          32.49         0.2994         -4.737         -51.04         -11.73         -139.1          81.13          106.1
    0.7674              -33.42          26.33          44.57          32.51         0.3039         -4.743         -51.07         -11.65         -139.1          81.09          106.0
    0.8008              -33.42          26.32          44.55          32.53         0.3089         -4.749         -51.12         -11.57         -139.1          81.05          106.0
    0.8342              -33.42          26.31          44.53          32.56         0.3144         -4.757         -51.16         -11.48         -139.0           81.0          105.9
    0.8675              -33.43           26.3          44.51          32.58         0.3206         -4.765         -51.22         -11.37         -139.0          80.95          105.8
    0.9009              -33.43          26.29          44.49          32.61         0.3276         -4.774         -51.28         -11.26         -138.9           80.9          105.7
    0.9343              -33.44          26.28          44.47          32.65         0.3355         -4.784         -51.34         -11.12         -138.9          80.83          105.6
    0.9676              -33.45          26.27          44.44          32.69         0.3445         -4.796         -51.42         -10.97         -138.8          80.76          105.5
     1.001              -33.45          26.25          44.41          32.73         0.3547         -4.809         -51.51          -10.8         -138.8          80.68          105.3
     1.034              -33.46          26.24          44.37          32.78         0.3664         -4.825          -51.6         -10.61         -138.7          80.58          105.1
     1.068              -33.47          26.22          44.33          32.84           0.38         -4.842         -51.72         -10.38         -138.6          80.47          105.0
     1.101              -33.48          26.19          44.28          32.91         0.3957         -4.863         -51.85         -10.12         -138.5          80.34          104.7
     1.134               -33.5          26.17          44.22          32.98         0.4141         -4.887         -52.01         -9.807         -138.3          80.19          104.5
     1.168              -33.51          26.14          44.15          33.08         0.4358         -4.915         -52.19         -9.443         -138.2          80.01          104.2
     1.201              -33.53           26.1          44.07          33.19         0.4616         -4.949         -52.41          -9.01         -138.0           79.8          103.8
     1.235              -33.56          26.06          43.98          33.32         0.4925         -4.989         -52.68         -8.492         -137.8          79.55          103.4
     1.268              -33.58           26.0          43.86          33.48           0.53         -5.038         -52.99         -7.865         -137.5          79.24          102.8
     1.301              -33.62          25.94          43.72          33.68         0.5757         -5.098         -53.38         -7.099         -137.2          78.87          102.2
     1.335              -33.66          25.86          43.54          33.92         0.6321         -5.172         -53.86         -6.153         -136.8           78.4          101.4
     1.368              -33.71          25.75          43.32          34.22         0.7024         -5.263         -54.46         -4.974         -136.3          77.83          100.4
     1.401              -33.77          25.63          43.04           34.6          0.791         -5.379         -55.21         -3.489         -135.7           77.1          99.14
     1.435              -33.86          25.47          42.69          35.09         0.9037         -5.526         -56.17         -1.601         -135.0          76.18          97.55
     1.468              -33.96          25.26          42.24           35.7          1.048         -5.714         -57.39         0.8159         -134.0           75.0          95.52
     1.502               -34.1          24.99          41.66           36.5          1.233         -5.956         -58.97          3.917         -132.7          73.49           92.9
     1.535              -34.27          24.65          40.92          37.51          1.469         -6.265         -60.97          7.879         -131.0          71.55          89.56
     1.568              -34.49          24.23          39.99          38.79          1.766         -6.653          -63.5          12.86         -129.0          69.12          85.37
     1.602              -34.76          23.71          38.86          40.34          2.129         -7.126         -66.57          18.93         -126.5          66.15          80.25
